<svg xmlns="http://www.w3.org/2000/svg" viewBox="0 0 513.5 169.29"><defs><style>.cls-1{fill:#fff;}</style></defs><title>App_store</title><g id="Layer_2" data-name="Layer 2"><g id="Layer_1-2" data-name="Layer 1"><path class="cls-1" d="M489.92,169.29H23.59A23.61,23.61,0,0,1,0,145.7V23.59A23.61,23.61,0,0,1,23.59,0H489.92A23.61,23.61,0,0,1,513.5,23.59V145.7A23.61,23.61,0,0,1,489.92,169.29ZM23.59,2A21.66,21.66,0,0,0,2,23.59V145.7a21.66,21.66,0,0,0,21.63,21.63H489.92a21.65,21.65,0,0,0,21.62-21.63V23.59A21.65,21.65,0,0,0,489.92,2Z"/><path class="cls-1" d="M134.38,111.59a83.25,83.25,0,0,1-7.49,14C122,133,115.16,142.2,106.67,142.28c-7.55.07-9.49-4.91-19.74-4.86s-12.38,5-19.93,4.88c-8.5-.08-15-8.41-19.86-15.81-13.61-20.71-15-45-6.64-57.94C46.47,59.37,55.87,54,64.72,54c9,0,14.66,4.94,22.11,4.94,7.22,0,11.62-4.94,22-4.94,7.87,0,16.21,4.28,22.15,11.69C111.55,76.35,114.71,104.15,134.38,111.59Z"/><path class="cls-1" d="M101,45.71c3.78-4.85,6.66-11.71,5.62-18.72-6.18.43-13.41,4.36-17.63,9.49C85.12,41.13,82,48,83.19,54.74,89.93,54.94,96.91,50.92,101,45.71Z"/><path class="cls-1" d="M175.82,68.24,156.33,125.6h8.93L171.08,108H190l6,17.61h9.17L185.53,68.24Zm4.63,9.43c.65,2.56,1.36,5.22,2.28,8.09L188,101H173l5.18-15.31C179,83.18,179.75,80.5,180.45,77.67Z"/><path class="cls-1" d="M230.32,83.11c-5.91,0-10.65,2.28-13.8,6.62L216.17,84h-7.94l.05.73c.24,3.56.33,7.47.33,13.09v44.21h8.68V121.42a15.26,15.26,0,0,0,11.87,5.1,17.89,17.89,0,0,0,13.15-5.6c3.8-4,5.8-9.79,5.8-16.69,0-6.1-1.74-11.37-5-15.24A16.51,16.51,0,0,0,230.32,83.11Zm-2.16,7.18c7.73,0,11.19,7.17,11.19,14.27,0,9.16-4.41,14.85-11.52,14.85a10.52,10.52,0,0,1-10.23-8,11.14,11.14,0,0,1-.31-2.81v-7a12.47,12.47,0,0,1,.28-2.14c0-.24.09-.48.12-.71A11,11,0,0,1,228.16,90.29Z"/><path class="cls-1" d="M275,83.11c-5.91,0-10.64,2.28-13.8,6.62L260.86,84h-7.93l0,.73c.24,3.56.34,7.47.34,13.09v44.21H262V121.42a15.24,15.24,0,0,0,11.86,5.1,17.89,17.89,0,0,0,13.15-5.6c3.8-4,5.81-9.79,5.81-16.69,0-6.1-1.75-11.37-5.05-15.24A16.51,16.51,0,0,0,275,83.11Zm-2.16,7.18c7.73,0,11.2,7.17,11.2,14.27,0,9.16-4.43,14.85-11.53,14.85a10.52,10.52,0,0,1-10.23-8,11.18,11.18,0,0,1-.3-2.81v-7a13.72,13.72,0,0,1,.27-2.15c.05-.23.09-.47.13-.7A11,11,0,0,1,272.85,90.29Z"/><path class="cls-1" d="M331,92.54c-8.1-3.13-10.7-5.6-10.7-10.16,0-3.83,3.05-7.7,9.87-7.7a19.8,19.8,0,0,1,10.19,2.55l.73.46,2.45-7.25-.48-.28c-1.46-.85-5.6-2.83-12.64-2.83-11.07,0-18.8,6.53-18.8,15.88,0,7.54,4.84,12.82,15.23,16.59,7.37,2.76,10.11,5.58,10.11,10.41,0,5.47-4.23,8.87-11,8.87a23.72,23.72,0,0,1-12.51-3.55l-.75-.48-2.33,7.41.43.28c3.27,2.19,9.44,3.78,14.66,3.78,14.92,0,20.21-9.1,20.21-16.89C345.64,101.6,341.4,96.65,331,92.54Z"/><path class="cls-1" d="M361.26,74.14l-8.51,2.67V84h-6.23V91h6.23v21.25c0,5.13,1,8.73,3,11a11.17,11.17,0,0,0,8.4,3.3,20.37,20.37,0,0,0,6.71-1l.49-.17-.42-7-.83.25a13,13,0,0,1-4,.47c-3.36,0-4.8-2.13-4.8-7.12V91h10.47V84H361.26Z"/><path class="cls-1" d="M393.24,83.11c-12.14,0-20.62,9.06-20.62,22,0,12.59,8.2,21.38,19.95,21.38h.09c9.93,0,20.62-6.93,20.62-22.12,0-6.18-1.91-11.49-5.53-15.35A19.29,19.29,0,0,0,393.24,83.11ZM393,90c7.81,0,11.36,7.61,11.36,14.69,0,8.7-4.85,15-11.53,15h-.08c-6.58,0-11.36-6.21-11.36-14.76C381.38,97.46,385,90,393,90Z"/><path class="cls-1" d="M439.86,83.51l-.52-.13a8.36,8.36,0,0,0-2.16-.27,12.37,12.37,0,0,0-10.88,7L426.05,84h-7.79l.05.73c.23,3.44.33,7.29.33,12.5l-.09,28.35h8.68V103.48a23.28,23.28,0,0,1,.24-3.36c1-5.31,4.57-8.75,9.13-8.75a22.82,22.82,0,0,1,2.33.15l.93.09Z"/><path class="cls-1" d="M459.37,83c-11.55,0-19.62,9.23-19.62,22.45,0,12.73,8,21,20.46,21A33.35,33.35,0,0,0,474,123.8l.52-.24-1.67-6.47-.72.3a27,27,0,0,1-10.88,1.94c-3.77,0-12.46-1.24-13-12.58l28,.08.11-.55a19.1,19.1,0,0,0,.26-3.63C476.59,93.6,472.08,83,459.37,83Zm-.57,6.6a8.59,8.59,0,0,1,6.37,2.43c2.49,2.54,2.93,6.28,3,8.08h-19.8C449.17,95.13,452.3,89.63,458.8,89.63Z"/><path class="cls-1" d="M156.33,29.05a63.64,63.64,0,0,1,8.33-.56c5.59,0,9.58,1.13,12.22,3.34s4.3,5.4,4.3,9.79a13.74,13.74,0,0,1-4.34,10.55c-2.87,2.54-7.53,3.91-13.39,3.91a61.05,61.05,0,0,1-7.12-.32Zm3.94,24.05a28.33,28.33,0,0,0,3.94.16c8.33,0,12.85-4.19,12.85-11.52,0-6.48-4-10.47-12.22-10.47a24.78,24.78,0,0,0-4.57.36Z"/><path class="cls-1" d="M195.14,56.28c-5.82,0-10.39-3.86-10.39-10,0-6.52,4.79-10.35,10.74-10.35,6.23,0,10.43,4.07,10.43,10,0,7.25-5.59,10.39-10.74,10.39Zm.13-2.66c3.76,0,6.58-3.18,6.58-7.61,0-3.3-1.84-7.45-6.49-7.45s-6.63,3.87-6.63,7.57c0,4.27,2.69,7.49,6.49,7.49Z"/><path class="cls-1" d="M212.15,36.34l2.91,9.87c.58,2.18,1.17,4.23,1.57,6.25h.13c.49-2,1.21-4.07,1.93-6.21l3.53-9.91h3.32l3.35,9.75c.81,2.3,1.43,4.39,1.93,6.37H231a53.39,53.39,0,0,1,1.66-6.33l3.08-9.79h3.9l-7,19.5H229l-3.31-9.3a62.15,62.15,0,0,1-1.93-6.45h-.09a54.75,54.75,0,0,1-2,6.49l-3.49,9.26h-3.58l-6.54-19.5Z"/><path class="cls-1" d="M243.53,41.62c0-2,0-3.66-.18-5.28h3.49l.23,3.19h.09a8.19,8.19,0,0,1,7.16-3.63c3,0,7.65,1.61,7.65,8.3V55.84H258V44.6c0-3.14-1.3-5.8-5-5.8a5.61,5.61,0,0,0-5.28,3.63,4.72,4.72,0,0,0-.27,1.65V55.84h-3.94Z"/><path class="cls-1" d="M268.37,27.24h3.94v28.6h-3.94Z"/><path class="cls-1" d="M287.66,56.28c-5.81,0-10.38-3.86-10.38-10,0-6.52,4.79-10.35,10.74-10.35,6.22,0,10.43,4.07,10.43,10,0,7.25-5.6,10.39-10.74,10.39Zm.14-2.66c3.76,0,6.58-3.18,6.58-7.61,0-3.3-1.84-7.45-6.49-7.45s-6.63,3.87-6.63,7.57c0,4.27,2.69,7.49,6.49,7.49Z"/><path class="cls-1" d="M318.68,51.17a28.71,28.71,0,0,0,.32,4.67h-3.54l-.36-2.46H315a8.34,8.34,0,0,1-6.63,2.9c-4.38,0-6.62-2.78-6.62-5.6,0-4.71,4.65-7.29,13-7.25V43c0-1.61-.49-4.55-4.92-4.51A11.25,11.25,0,0,0,304.14,40l-.9-2.38a15.32,15.32,0,0,1,7.16-1.69c6.67,0,8.28,4.07,8.28,8Zm-3.85-5.28c-4.29-.08-9.17.6-9.17,4.39,0,2.34,1.7,3.38,3.67,3.38a5.45,5.45,0,0,0,5.32-3.26,3.15,3.15,0,0,0,.18-1.13Z"/><path class="cls-1" d="M343.7,27.24V50.8c0,1.74.05,3.71.18,5h-3.53l-.18-3.38h-.09a8.12,8.12,0,0,1-7.34,3.82c-5.24,0-9.31-4-9.31-9.91-.05-6.52,4.48-10.47,9.71-10.47,3.36,0,5.6,1.41,6.54,2.94h.09V27.24Zm-3.93,17a6.15,6.15,0,0,0-.18-1.53,5.7,5.7,0,0,0-5.69-4.07c-4.07,0-6.49,3.22-6.49,7.49,0,4,2.2,7.25,6.4,7.25a5.87,5.87,0,0,0,5.78-4.23,5.68,5.68,0,0,0,.18-1.53Z"/><path class="cls-1" d="M368.54,56.28c-5.81,0-10.38-3.86-10.38-10,0-6.52,4.79-10.35,10.74-10.35,6.23,0,10.43,4.07,10.43,10,0,7.25-5.59,10.39-10.74,10.39Zm.14-2.66c3.76,0,6.58-3.18,6.58-7.61,0-3.3-1.83-7.45-6.49-7.45s-6.62,3.87-6.62,7.57c0,4.27,2.68,7.49,6.48,7.49Z"/><path class="cls-1" d="M384.3,41.62c0-2,0-3.66-.18-5.28h3.49l.23,3.19h.09a8.19,8.19,0,0,1,7.16-3.63c3,0,7.65,1.61,7.65,8.3V55.84H398.8V44.6c0-3.14-1.29-5.8-5-5.8a5.62,5.62,0,0,0-5.28,3.63,4.72,4.72,0,0,0-.27,1.65V55.84H384.3Z"/><path class="cls-1" d="M423.38,31.67v4.67H429V39h-5.64V49.56c0,2.41.76,3.78,2.95,3.78a8.25,8.25,0,0,0,2.29-.24l.17,2.7a11.85,11.85,0,0,1-3.49.48,6,6,0,0,1-4.25-1.49c-1.07-1.08-1.52-2.82-1.52-5.11V39h-3.36v-2.7h3.36V32.76Z"/><path class="cls-1" d="M433.45,27.24h3.94V39.41h.09a6.63,6.63,0,0,1,2.82-2.5,8.25,8.25,0,0,1,4-1c2.9,0,7.56,1.61,7.56,8.34v11.6H448V44.64c0-3.18-1.3-5.8-5-5.8a5.65,5.65,0,0,0-5.28,3.55,3.78,3.78,0,0,0-.27,1.69V55.84h-3.94Z"/><path class="cls-1" d="M460.53,46.7c.09,4.79,3.45,6.76,7.39,6.76a16.59,16.59,0,0,0,6-1l.71,2.49a19.25,19.25,0,0,1-7.25,1.25c-6.63,0-10.65-4-10.65-9.83s3.89-10.55,10.2-10.55c7.07,0,8.91,5.6,8.91,9.19a8.19,8.19,0,0,1-.14,1.69ZM472,44.16c.05-2.22-1-5.76-5.41-5.76-4,0-5.73,3.3-6,5.76Z"/></g></g></svg>