<svg xmlns="http://www.w3.org/2000/svg" viewBox="0 0 19.49 19.49"><defs><style>.cls-1{fill:#fff;}</style></defs><title>Logo IG</title><g id="Layer_2" data-name="Layer 2"><g id="layer"><path class="cls-1" d="M12.65,5.18H6.84A1.69,1.69,0,0,0,5.16,6.87v5.8a1.68,1.68,0,0,0,1.68,1.68h5.81a1.68,1.68,0,0,0,1.68-1.68V6.87a1.69,1.69,0,0,0-1.68-1.69ZM9.74,12.79a3,3,0,1,1,3-3,3,3,0,0,1-3,3Zm3.12-5.42a.71.71,0,1,1,.71-.71.71.71,0,0,1-.71.71Z"/><path class="cls-1" d="M9.74,8a1.74,1.74,0,1,0,1.75,1.74A1.74,1.74,0,0,0,9.74,8Z"/><path class="cls-1" d="M9.74,0a9.75,9.75,0,1,0,9.75,9.74A9.74,9.74,0,0,0,9.74,0ZM15.6,12.67a3,3,0,0,1-2.95,3H6.84a3,3,0,0,1-3-3V6.87a3,3,0,0,1,3-3h5.81a3,3,0,0,1,2.95,3Z"/></g></g></svg>