<svg xmlns="http://www.w3.org/2000/svg" viewBox="0 0 513.48 169.31"><defs><style>.cls-1{fill:#fff;}.cls-2{fill:#f9f9f9;}.cls-3{fill:#f9f9fa;}</style></defs><title>Play_store</title><g id="Layer_2" data-name="Layer 2"><g id="Layer_1-2" data-name="Layer 1"><path class="cls-1" d="M489.88,169.31H23.61A23.63,23.63,0,0,1,0,145.7V23.61A23.63,23.63,0,0,1,23.61,0H489.88a23.63,23.63,0,0,1,23.6,23.61V145.7A23.63,23.63,0,0,1,489.88,169.31ZM23.61,2A21.64,21.64,0,0,0,2,23.61V145.7a21.64,21.64,0,0,0,21.61,21.61H489.88a21.63,21.63,0,0,0,21.6-21.61V23.61A21.63,21.63,0,0,0,489.88,2Z"/><path class="cls-2" d="M399.06,111.57a14.11,14.11,0,0,1-5.88-1.19,11.06,11.06,0,0,1-4.46-3.65h-.36a44.38,44.38,0,0,1,.36,5.47v13.56h-5V78h4.06l.69,4.51h.24a11.55,11.55,0,0,1,4.48-3.91,13.63,13.63,0,0,1,5.86-1.2q6.56,0,10.12,4.48t3.56,12.56q0,8.13-3.62,12.62A12.23,12.23,0,0,1,399.06,111.57Zm-.72-29.91c-3.37,0-5.8.93-7.31,2.79s-2.27,4.83-2.31,8.9v1.11q0,7,2.31,9.94c1.55,2,4,3,7.43,3a7.73,7.73,0,0,0,6.69-3.45c1.61-2.31,2.42-5.48,2.42-9.54s-.81-7.26-2.42-9.45A8,8,0,0,0,398.34,81.66Z"/><path class="cls-2" d="M424.29,111h-5V64.19h5Z"/><path class="cls-2" d="M453,111l-1-4.69h-.24a13.76,13.76,0,0,1-4.91,4.19,14.89,14.89,0,0,1-6.12,1.1q-4.91,0-7.68-2.52c-1.86-1.69-2.78-4.08-2.78-7.19q0-10,16-10.46l5.59-.18v-2c0-2.58-.55-4.49-1.67-5.72s-2.89-1.85-5.33-1.85a21.74,21.74,0,0,0-9.32,2.52L434,80.3a23.71,23.71,0,0,1,5.34-2.07,23.18,23.18,0,0,1,5.82-.75q5.89,0,8.73,2.61c1.9,1.75,2.84,4.54,2.84,8.39V111Zm-11.28-3.52A10.13,10.13,0,0,0,449,104.9a9.43,9.43,0,0,0,2.66-7.16v-3l-5,.21c-4,.14-6.83.75-8.58,1.85a5.58,5.58,0,0,0-2.63,5.09,5.11,5.11,0,0,0,1.64,4.12A6.8,6.8,0,0,0,441.71,107.45Z"/><path class="cls-2" d="M459.58,78h5.35l7.22,18.79a71.82,71.82,0,0,1,2.94,9.29h.24c.27-1,.81-2.77,1.64-5.25s3.56-10.08,8.16-22.83h5.36l-14.16,37.52c-1.41,3.71-3,6.34-4.92,7.89a10.4,10.4,0,0,1-6.9,2.33,20.12,20.12,0,0,1-4.51-.51v-4a17.42,17.42,0,0,0,3.7.37q5.15,0,7.34-5.78l1.83-4.69Z"/><path class="cls-2" d="M306.61,81.08a11.64,11.64,0,0,1,4.89,9.31c0,5.09-2.89,7.51-5.79,9.78-.9.9-1.93,1.87-1.93,3.38a3.75,3.75,0,0,0,1.8,3l2.48,1.93c3,2.55,5.78,4.9,5.78,9.65,0,6.48-6.27,13-18.12,13-10,0-14.82-4.76-14.82-9.86,0-2.48,1.24-6,5.31-8.41,4.27-2.62,10.06-3,13.16-3.17-1-1.24-2.07-2.55-2.07-4.68a6.26,6.26,0,0,1,.69-2.69c-.76.07-1.51.13-2.2.13-7.31,0-11.44-5.44-11.44-10.81a12.41,12.41,0,0,1,4.41-9.24c3.93-3.24,8.61-3.79,12.34-3.79h14.19l-4.41,2.48Zm-4.9,30.6a10.92,10.92,0,0,0-1.58-.07,27.53,27.53,0,0,0-7.24,1.11c-1.51.55-5.92,2.2-5.92,7.1s4.75,8.41,12.13,8.41c6.61,0,10.13-3.18,10.13-7.45C309.23,117.26,307,115.41,301.71,111.68Zm2-13.09a6.94,6.94,0,0,0,1.72-5c0-5-3-12.69-8.68-12.69a6.43,6.43,0,0,0-4.82,2.28,8,8,0,0,0-1.52,5.1c0,4.62,2.69,12.27,8.62,12.27A7,7,0,0,0,303.71,98.59Z"/><path class="cls-2" d="M263.22,110.58a16.24,16.24,0,0,1-16.79-16.24c0-9,7.36-16.72,17.83-16.72A16.09,16.09,0,0,1,280.7,93.86C280.7,102,274.44,110.58,263.22,110.58Zm8.6-5.57a12.5,12.5,0,0,0,2.07-7.64c0-6.06-2.89-17.62-11.43-17.62a9.59,9.59,0,0,0-6.19,2.35c-2.68,2.4-3.16,5.43-3.16,8.39,0,6.81,3.37,18,11.7,18A8.78,8.78,0,0,0,271.82,105Z"/><path class="cls-2" d="M225.93,110.58c-11,0-16.79-8.53-16.79-16.24,0-9,7.36-16.72,17.82-16.72A16.09,16.09,0,0,1,243.4,93.86C243.4,102,237.14,110.58,225.93,110.58Zm8.6-5.57a12.49,12.49,0,0,0,2.06-7.64c0-6.06-2.89-17.62-11.42-17.62A9.57,9.57,0,0,0,219,82.1c-2.69,2.4-3.17,5.43-3.17,8.39,0,6.81,3.37,18,11.7,18A8.81,8.81,0,0,0,234.53,105Z"/><path class="cls-2" d="M203.88,109.5,194,111.78A72.82,72.82,0,0,1,182.57,113c-19.09,0-26.35-14-26.35-25,0-13.41,10.3-25.86,27.94-25.86a39.9,39.9,0,0,1,10.59,1.45,26.84,26.84,0,0,1,9.13,4.29l-5.74,5.46-2.42.55L197.44,71c-2.35-2.28-6.64-6.49-14.8-6.49-10.93,0-19.16,8.3-19.16,20.4,0,13,9.41,25.25,24.48,25.25a20.63,20.63,0,0,0,8.79-1.73V97.33l-10.44.55,5.53-3h14.67l-1.8,1.73a1.59,1.59,0,0,0-.69,1.11c-.08.62-.14,2.63-.14,3.32Z"/><path class="cls-2" d="M328.47,107.51c-2.28-.21-2.76-.62-2.76-3.32V65c0-.15,0-.3,0-.44.28-2.42,1-2.84,3.12-4.09H319L313.78,63h5.29v42.71c0,1.38-.28,1.59-1.87,3.67h12.25l2.55-1.52C330.83,107.72,329.65,107.65,328.47,107.51Z"/><path class="cls-2" d="M356.62,108.15c-.75.41-1.5.89-2.26,1.23a16,16,0,0,1-6.67,1.31,14.69,14.69,0,0,1-9.14-2.68c-4.87-3.44-7-9.35-7-14.5,0-10.65,8.66-15.87,15.73-15.87a13.32,13.32,0,0,1,7.08,1.93,11.39,11.39,0,0,1,4.81,6.79L343,92.89l-5.29.42c1.72,8.72,7.63,13.8,14.16,13.8a17.73,17.73,0,0,0,8.38-2.4Zm-6.45-20.48c1.3-.48,2-.89,2-1.85,0-2.75-3.09-5.91-6.8-5.91-2.75,0-7.9,2.13-7.9,9.55,0,1.17.13,2.4.21,3.64Z"/><path class="cls-2" d="M363.26,78.11v4.54h-.55V78.11h-1.5v-.47h3.54v.47Z"/><path class="cls-2" d="M369.44,82.65V78.07h0L368,82.65h-.43l-1.41-4.58h0v4.58h-.5v-5h.85l1.28,4h0l1.25-4h.87v5Z"/><path class="cls-3" d="M170,48.58h-3.43a22.73,22.73,0,0,0-1-4h-5a20.2,20.2,0,0,0-1,4h-3.24c0-.28.84-2.58,2.51-6.88a54.08,54.08,0,0,0,2.51-7.11h4.06a60.25,60.25,0,0,0,2.27,7A59.31,59.31,0,0,1,170,48.58Zm-5-6.07c-1.22-3.7-1.84-5.7-1.84-6H163a62.1,62.1,0,0,1-1.9,6Z"/><path class="cls-3" d="M183.81,48.58h-2.66q0-.45-3-4.66c-2.06-3-3.24-5-3.52-6.07h-.18a37.72,37.72,0,0,1,.27,4.26c0,1.77,0,3.92.15,6.47h-2.64q.16-3.33.16-7.32c0-2.61-.05-4.84-.16-6.67h3.19q0,.57,2.65,4.54a26.79,26.79,0,0,1,3.25,5.73h.16a41.19,41.19,0,0,1-.26-4.3q0-2.91-.15-6h2.69q-.15,2.67-.15,6.67T183.81,48.58Z"/><path class="cls-3" d="M199.38,41.1a8,8,0,0,1-2,5.33,6.82,6.82,0,0,1-5.48,2.27q-1.59,0-4.38-.12.13-3.26.14-7.32t-.14-6.67h1.88l1.37,0,1.2,0c2.58,0,4.46.65,5.62,1.94A6.7,6.7,0,0,1,199.38,41.1Zm-2.94.46a5.18,5.18,0,0,0-1.2-3.47,4.54,4.54,0,0,0-3.67-1.42,12.72,12.72,0,0,0-1.27.1c.07,1.43.11,2.93.11,4.49,0,1.71,0,3.41.1,5.09a7.39,7.39,0,0,0,1.4.14,4.07,4.07,0,0,0,3.42-1.43A5.55,5.55,0,0,0,196.44,41.56Z"/><path class="cls-3" d="M213.73,48.58h-3.18a21.41,21.41,0,0,0-1.91-4.7,2.51,2.51,0,0,0-2.15-.89H205.3c0,1.84,0,3.7.1,5.58h-3q.14-3.26.14-7.32t-.14-6.67h1.86l1.35,0c.68,0,1.31,0,1.89,0q4.94,0,4.93,3.38a3.8,3.8,0,0,1-2.81,3.73v.16a3.33,3.33,0,0,1,1.9,1.69A37.1,37.1,0,0,1,213.73,48.58Zm-4-9.89c0-1.42-.91-2.14-2.75-2.14a9.41,9.41,0,0,0-1.78.16c.08,1.11.12,2.55.12,4.33l1,0C208.57,41.07,209.7,40.28,209.7,38.69Z"/><path class="cls-3" d="M229.13,41.32a7.69,7.69,0,0,1-2,5.47,6.54,6.54,0,0,1-5,2.17,6.3,6.3,0,0,1-4.75-2,7,7,0,0,1-1.91-5.07,7.68,7.68,0,0,1,2-5.46,6.52,6.52,0,0,1,5-2.17,6.35,6.35,0,0,1,4.75,2A7,7,0,0,1,229.13,41.32Zm-3,.32A5.61,5.61,0,0,0,225,38a3.55,3.55,0,0,0-2.84-1.39,3.28,3.28,0,0,0-2.66,1.4,5.64,5.64,0,0,0-1.1,3.56,5.55,5.55,0,0,0,1.16,3.64,3.54,3.54,0,0,0,2.83,1.4,3.27,3.27,0,0,0,2.66-1.41A5.65,5.65,0,0,0,226.17,41.64Z"/><path class="cls-3" d="M235.2,48.58h-3c.1-2.22.14-4.66.14-7.32s0-4.84-.14-6.67h3c-.09,1.8-.14,4-.14,6.67S235.11,46.4,235.2,48.58Z"/><path class="cls-3" d="M250.77,41.1a8,8,0,0,1-2,5.33,6.82,6.82,0,0,1-5.48,2.27q-1.59,0-4.38-.12.14-3.26.14-7.32T239,34.59h1.88l1.37,0,1.2,0c2.58,0,4.46.65,5.62,1.94A6.69,6.69,0,0,1,250.77,41.1Zm-2.93.46a5.18,5.18,0,0,0-1.2-3.47A4.54,4.54,0,0,0,243,36.67a12.5,12.5,0,0,0-1.27.1c.07,1.43.11,2.93.11,4.49,0,1.71,0,3.41.1,5.09a7.39,7.39,0,0,0,1.4.14,4.07,4.07,0,0,0,3.42-1.43A5.55,5.55,0,0,0,247.84,41.56Z"/><path class="cls-3" d="M271.43,48.58H268a21.78,21.78,0,0,0-1-4h-5a21,21,0,0,0-1,4h-3.23c0-.28.84-2.58,2.51-6.88a54.08,54.08,0,0,0,2.51-7.11h4.06a58,58,0,0,0,2.27,7A61.68,61.68,0,0,1,271.43,48.58Zm-5-6.07a59.7,59.7,0,0,1-1.84-6h-.17a62.1,62.1,0,0,1-1.9,6Z"/><path class="cls-3" d="M284,38.25A4.16,4.16,0,0,1,282.05,42a8.44,8.44,0,0,1-4.67,1.23l-.72,0c0,1.34,0,3.12.11,5.33h-3q.14-3.11.14-7.32,0-3.87-.14-6.67h1.86l1.53,0c.75,0,1.4,0,2,0a6.07,6.07,0,0,1,3.44.93A3.11,3.11,0,0,1,284,38.25Zm-2.77.59c0-1.53-1-2.3-3.05-2.3a8.4,8.4,0,0,0-1.61.17q.12,2,.12,4.59a5.73,5.73,0,0,0,.62,0C279.88,41.32,281.19,40.5,281.19,38.84Z"/><path class="cls-3" d="M296.84,38.25a4.18,4.18,0,0,1-1.9,3.79,8.45,8.45,0,0,1-4.68,1.23l-.72,0c0,1.34,0,3.12.12,5.33h-3q.14-3.11.14-7.32,0-3.87-.14-6.67h1.87l1.52,0c.76,0,1.41,0,2,0a6.13,6.13,0,0,1,3.45.93A3.11,3.11,0,0,1,296.84,38.25Zm-2.77.59c0-1.53-1-2.3-3.05-2.3a8.48,8.48,0,0,0-1.61.17q.12,2,.12,4.59a5.92,5.92,0,0,0,.62,0C292.77,41.32,294.07,40.5,294.07,38.84Z"/><path class="cls-3" d="M317.91,41.32a7.69,7.69,0,0,1-2,5.47,6.55,6.55,0,0,1-5,2.17,6.28,6.28,0,0,1-4.74-2,7,7,0,0,1-1.92-5.07,7.73,7.73,0,0,1,2-5.46,6.56,6.56,0,0,1,5-2.17,6.35,6.35,0,0,1,4.75,2A7,7,0,0,1,317.91,41.32Zm-3,.32A5.56,5.56,0,0,0,313.79,38,3.52,3.52,0,0,0,311,36.6a3.31,3.31,0,0,0-2.67,1.4,5.64,5.64,0,0,0-1.09,3.56,5.55,5.55,0,0,0,1.15,3.64,3.56,3.56,0,0,0,2.83,1.4,3.28,3.28,0,0,0,2.67-1.41A5.64,5.64,0,0,0,314.94,41.64Z"/><path class="cls-3" d="M332.47,48.58h-2.65q0-.45-3-4.66c-2.06-3-3.24-5-3.52-6.07h-.17a37.72,37.72,0,0,1,.27,4.26c0,1.77.05,3.92.15,6.47h-2.65q.17-3.33.16-7.32c0-2.61-.05-4.84-.16-6.67h3.19q0,.57,2.66,4.54A27,27,0,0,1,330,44.86h.16a41.19,41.19,0,0,1-.26-4.3q0-2.91-.15-6h2.69q-.15,2.67-.15,6.67T332.47,48.58Z"/><path class="cls-1" d="M132.73,79.13l-75.23-43A12.11,12.11,0,0,0,39.37,46.65v86A12.11,12.11,0,0,0,57.5,143.18l75.23-43a12.13,12.13,0,0,0,0-21.05ZM100.13,69,89.8,83.35,65.09,48.94ZM51,137.38a4.69,4.69,0,0,1-1.92-.6,4.8,4.8,0,0,1-2.38-4.12v-86a4.8,4.8,0,0,1,2.38-4.12A4.66,4.66,0,0,1,51,41.92L85.27,89.65Zm14.08-7L89.8,96l10.33,14.38Zm64-36.57-22.54,12.88-12.22-17,12.22-17,22.54,12.89a4.77,4.77,0,0,1,0,8.28Z"/></g></g></svg>