<svg xmlns="http://www.w3.org/2000/svg" viewBox="0 0 19.49 19.49"><defs><style>.cls-1{fill:#fff;}</style></defs><title>Logo Soundcloud</title><g id="Layer_2" data-name="Layer 2"><g id="layer"><path class="cls-1" d="M9.74,0a9.75,9.75,0,1,0,9.75,9.74A9.74,9.74,0,0,0,9.74,0ZM2.9,12a.06.06,0,0,1,0,.06A.06.06,0,0,1,2.79,12l-.1-.77.1-.78a.06.06,0,1,1,.11,0l.12.78Zm.53.47s0,.06-.06.06a.06.06,0,0,1-.06-.06l-.14-1.24.14-1.27a.06.06,0,0,1,.06-.05.06.06,0,0,1,.06.05l.15,1.27Zm.56.21a.07.07,0,0,1-.07.07s-.06,0-.07-.07l-.13-1.45.13-1.5a.07.07,0,0,1,.14,0l.15,1.5Zm.57,0a.08.08,0,1,1-.16,0l-.13-1.5L4.4,9.64a.08.08,0,0,1,.16,0l.14,1.54Zm.58,0a.1.1,0,0,1-.1.09A.09.09,0,0,1,5,12.69l-.12-1.51L5,9.75A.09.09,0,0,1,5,9.66a.1.1,0,0,1,.1.09l.13,1.43Zm.58,0h0a.11.11,0,0,1-.11.11.11.11,0,0,1-.1-.11L5.4,11.18l.11-2.33a.1.1,0,0,1,.1-.1.1.1,0,0,1,.11.1l.12,2.33Zm.58,0h0a.13.13,0,0,1-.12.12.12.12,0,0,1-.12-.12L6,11.19l.11-2.86a.12.12,0,0,1,.12-.12.13.13,0,0,1,.12.12l.11,2.86Zm.59,0h0a.13.13,0,0,1-.26,0l-.09-1.48.09-3.11a.13.13,0,0,1,.26,0L7,11.19Zm.6,0a.15.15,0,0,1-.15.14.14.14,0,0,1-.14-.14l-.09-1.47L7.2,8a.15.15,0,0,1,.14-.15A.16.16,0,0,1,7.49,8l.1,3.21Zm.6,0h0a.16.16,0,0,1-.16.16.16.16,0,0,1-.15-.16l-.09-1.45.08-3.13a.17.17,0,0,1,.16-.16.16.16,0,0,1,.16.16l.09,3.13Zm.6,0h0a.17.17,0,0,1-.17.17.17.17,0,0,1-.17-.16l-.07-1.45.07-3A.17.17,0,0,1,8.52,8a.17.17,0,0,1,.17.16l.08,3Zm.61-.16v.15a.27.27,0,0,1-.06.12.18.18,0,0,1-.12.05A.17.17,0,0,1,9,12.74a.21.21,0,0,1,0-.11h0l-.07-1.45.07-3.55v0A.18.18,0,0,1,9,7.45a.17.17,0,0,1,.1,0,.19.19,0,0,1,.1,0,.24.24,0,0,1,.08.15l.07,3.59Zm.6.13h0a.19.19,0,0,1-.38,0l0-.7,0-.72L9.52,7.3v0a.2.2,0,0,1,.07-.15.17.17,0,0,1,.12,0l.1,0a.22.22,0,0,1,.09.17L10,11.19Zm5.16.19H10.25a.21.21,0,0,1-.19-.2V7.09c0-.1,0-.15.17-.2a3.13,3.13,0,0,1,1.11-.21,3.07,3.07,0,0,1,3.05,2.79,1.71,1.71,0,0,1,.67-.14,1.74,1.74,0,1,1,0,3.47Z"/></g></g></svg>