<svg xmlns="http://www.w3.org/2000/svg" viewBox="0 0 501 116.06"><defs><style>.cls-1{fill:#93d500;}.cls-2{fill:#005cb9;}.cls-3{fill:#fff;}</style></defs><title>STREAMING BUTTON DELTA</title><g id="Layer_2" data-name="Layer 2"><g id="Layer_1-2" data-name="Layer 1"><rect class="cls-1" width="501" height="116.06" rx="21.57" ry="21.57"/><g id="_Group_" data-name="&lt;Group&gt;"><g id="_Group_2" data-name="&lt;Group&gt;"><path id="_Compound_Path_" data-name="&lt;Compound Path&gt;" class="cls-2" d="M152,42.07h-1.82V33.86h6.28V35.5H152v1.94h3.58v1.64H152Z"/><path id="_Compound_Path_2" data-name="&lt;Compound Path&gt;" class="cls-2" d="M159.44,36.38h-.12v5.69h-1.81V33.86h2l2.47,3,2.46-3h2v8.21h-1.82V36.38h-.12L162,39.49Z"/></g><path id="_Compound_Path_3" data-name="&lt;Compound Path&gt;" class="cls-2" d="M66.77,62.88c.54,4.44,4.2,7.34,9.53,7.34,3,0,6.69-1.13,8.46-3.14l4,3.85c-3,3.31-8,5-12.55,5-9.59,0-15.74-6.1-15.74-15.45,0-8.87,6.21-15.21,15.33-15.21,9.41,0,15.8,5.74,14.68,17.64Zm17.82-5.15c-.36-4.61-3.73-7-8.64-7-4.44,0-8.11,2.43-9.06,7Z"/><path id="_Compound_Path_4" data-name="&lt;Compound Path&gt;" class="cls-2" d="M100,33.82V75.19H93.94V33.82Z"/><path id="_Compound_Path_5" data-name="&lt;Compound Path&gt;" class="cls-2" d="M115,37.61v8.46h8.53v5.27H115V65.25c0,3.07,1.36,4.79,4.2,4.79a8.86,8.86,0,0,0,3.73-1l1.77,5.2a13.79,13.79,0,0,1-5.86,1.31c-6.33.17-9.94-3.44-9.94-10.3V51.34h-5.62V46.07h5.62V38.26Z"/><path id="_Compound_Path_6" data-name="&lt;Compound Path&gt;" class="cls-2" d="M150.16,46h5.92V75.19h-5.8l-.3-4.73C148,74.19,143.53,76,139.92,76c-8.52.06-15-5.44-15-15.39,0-9.76,6.68-15.21,15.09-15.21,4.14,0,8.11,2,9.94,5.27ZM131,60.57c0,6,4.26,9.71,9.47,9.71,12.61,0,12.61-19.35,0-19.35A9.18,9.18,0,0,0,131,60.57Z"/><path id="_Compound_Path_7" data-name="&lt;Compound Path&gt;" class="cls-2" d="M55,47.26,54.7,47,44.39,35.43a7.61,7.61,0,0,0-5-1.88l-13.65,0A5.43,5.43,0,0,0,20.3,39V70.05a5.43,5.43,0,0,0,5.43,5.43H39.39c.77,0,3.41-.23,5-1.89.06,0,.06,0,10.33-11.55l.24-.27a9.78,9.78,0,0,0,2.89-6.83v-.85A9.73,9.73,0,0,0,55,47.26ZM50.19,57.4c-.23.21-.89,1-3.12,3.44L39.88,68.9a1.49,1.49,0,0,1-.65.08H28.28a1.5,1.5,0,0,1-1.49-1.49v-26a1.49,1.49,0,0,1,.44-1A1.47,1.47,0,0,1,28.28,40H39.23a2.3,2.3,0,0,1,.64.06l7.3,8.17c2.15,2.42,2.79,3.13,3,3.34l0,0,.09.1a3.38,3.38,0,0,1,1.1,2.35v.85a3.38,3.38,0,0,1-1.1,2.35l-.09.1Z"/></g><path class="cls-3" d="M174.94,70.27l3.67-5.22a13.77,13.77,0,0,0,10,4.28c3.71,0,5.45-1.65,5.45-3.48C194,60.4,176,64.2,176,52.41c0-5.22,4.52-9.54,11.89-9.54a17.41,17.41,0,0,1,12.22,4.37l-3.71,5a13.47,13.47,0,0,0-9.12-3.43c-2.82,0-4.41,1.22-4.41,3.1,0,4.93,18,1.6,18,13.3,0,5.73-4.14,10.06-12.55,10.06C182.23,75.25,177.9,73.23,174.94,70.27Z"/><path class="cls-3" d="M211.93,74.68V49.21h-9.17V43.34h25v5.87h-9.12V74.68Z"/><path class="cls-3" d="M249.76,74.68l-6.15-11.14h-4.89V74.68H232V43.34h14.67c6.53,0,10.57,4.27,10.57,10.1,0,5.5-3.52,8.51-6.91,9.31l7.1,11.93Zm.66-21.29c0-2.58-2-4.18-4.65-4.18h-7.05v8.46h7.05C248.4,57.67,250.42,56.07,250.42,53.39Z"/><path class="cls-3" d="M262.27,74.68V43.34h22.18v5.87H268.94v6.58h15.18v5.87H268.94v7.15h15.51v5.87Z"/><path class="cls-3" d="M311.33,74.68l-2-5.31H295.92l-2,5.31h-7.56l12.08-31.34h8.36L318.9,74.68ZM302.64,50,297.75,63.5h9.78Z"/><path class="cls-3" d="M349.07,74.68V52.08l-8.83,22.6h-2.92l-8.83-22.6v22.6h-6.68V43.34h9.36l7.61,19.59,7.61-19.59h9.4V74.68Z"/><path class="cls-3" d="M395.7,74.68,380.75,54.24V74.68h-6.67V43.34h6.86L395.46,63V43.34h6.67V74.68Z"/><path class="cls-3" d="M406.83,59c0-9.44,6.91-16.21,16.41-16.21S439.59,49.59,439.59,59s-6.91,16.22-16.35,16.22S406.83,68.48,406.83,59Zm25.9,0c0-5.87-3.71-10.29-9.49-10.29S413.7,53.16,413.7,59s3.71,10.3,9.54,10.3S432.73,64.86,432.73,59Z"/><path class="cls-3" d="M467.32,74.68l-5.5-21.52-5.45,21.52h-7.09l-9-31.34h7.47L453.27,66l6-22.65h5.22L470.38,66l5.5-22.65h7.47l-8.93,31.34Z"/></g></g></svg>