<svg xmlns="http://www.w3.org/2000/svg" viewBox="0 0 19.49 19.49"><defs><style>.cls-1{fill:#fff;}</style></defs><title>Logo Twitter</title><g id="Layer_2" data-name="Layer 2"><g id="layer"><path class="cls-1" d="M9.74,0a9.75,9.75,0,1,0,9.75,9.74A9.75,9.75,0,0,0,9.74,0Zm4.35,7.51V7.8a6.38,6.38,0,0,1-9.81,5.38,4.58,4.58,0,0,0,.53,0,4.53,4.53,0,0,0,2.79-1,2.26,2.26,0,0,1-2.1-1.56,2,2,0,0,0,.42,0,2.21,2.21,0,0,0,.59-.08,2.24,2.24,0,0,1-1.79-2.2v0a2.45,2.45,0,0,0,1,.28,2.24,2.24,0,0,1-.69-3A6.38,6.38,0,0,0,9.66,8.06,2.24,2.24,0,0,1,13.48,6a4.75,4.75,0,0,0,1.43-.54,2.3,2.3,0,0,1-1,1.24,4.66,4.66,0,0,0,1.29-.36,4.42,4.42,0,0,1-1.12,1.16Z"/></g></g></svg>