<svg xmlns="http://www.w3.org/2000/svg" viewBox="0 0 19.49 19.49"><defs><style>.cls-1{fill:#fff;}</style></defs><title>Logo YT</title><g id="Layer_2" data-name="Layer 2"><g id="layer"><path class="cls-1" d="M8,11.88l4.37-2.27L8,7.33Z"/><path class="cls-1" d="M9.74,0a9.75,9.75,0,1,0,9.75,9.74A9.74,9.74,0,0,0,9.74,0Zm6.64,13a1.74,1.74,0,0,1-1.49,1.35,46.48,46.48,0,0,1-5.15.19,46.57,46.57,0,0,1-5.15-.19A1.74,1.74,0,0,1,3.1,13a14.79,14.79,0,0,1-.24-3.26,14.7,14.7,0,0,1,.25-3.25A1.72,1.72,0,0,1,4.59,5.14,46.75,46.75,0,0,1,9.75,5a46.66,46.66,0,0,1,5.15.19,1.73,1.73,0,0,1,1.48,1.35,14.7,14.7,0,0,1,.24,3.25A14.79,14.79,0,0,1,16.38,13Z"/></g></g></svg>